<?xml version="1.0" encoding="UTF-8" standalone="no"?>
<svg
   xmlns:dc="http://purl.org/dc/elements/1.1/"
   xmlns:cc="http://creativecommons.org/ns#"
   xmlns:rdf="http://www.w3.org/1999/02/22-rdf-syntax-ns#"
   xmlns:svg="http://www.w3.org/2000/svg"
   xmlns="http://www.w3.org/2000/svg"
   xmlns:sodipodi="http://sodipodi.sourceforge.net/DTD/sodipodi-0.dtd"
   xmlns:inkscape="http://www.inkscape.org/namespaces/inkscape"
   version="1.0"
   width="155.80234"
   height="155.80234"
   id="svg4691"
   sodipodi:docname="bhg-favicon.svg"
   inkscape:version="0.92.1 r"
   inkscape:export-filename="/home/beej/src/bhg-website/img/bhg-favicon-64.png"
   inkscape:export-xdpi="39.43"
   inkscape:export-ydpi="39.43">
  <metadata
     id="metadata4697">
    <rdf:RDF>
      <cc:Work
         rdf:about="">
        <dc:format>image/svg+xml</dc:format>
        <dc:type
           rdf:resource="http://purl.org/dc/dcmitype/StillImage" />
        <dc:title></dc:title>
      </cc:Work>
    </rdf:RDF>
  </metadata>
  <defs
     id="defs4695">
    <filter
       inkscape:collect="always"
       style="color-interpolation-filters:sRGB"
       id="filter4700"
       x="-0.10860291"
       width="1.2172058"
       y="-0.12540327"
       height="1.2508065">
      <feGaussianBlur
         inkscape:collect="always"
         stdDeviation="5.7921549"
         id="feGaussianBlur4702" />
    </filter>
  </defs>
  <sodipodi:namedview
     pagecolor="#000000"
     bordercolor="#666666"
     borderopacity="1"
     objecttolerance="10"
     gridtolerance="10"
     guidetolerance="10"
     inkscape:pageopacity="0"
     inkscape:pageshadow="2"
     inkscape:window-width="1501"
     inkscape:window-height="942"
     id="namedview4693"
     showgrid="false"
     inkscape:zoom="2"
     inkscape:cx="103.85939"
     inkscape:cy="149.35468"
     inkscape:window-x="66"
     inkscape:window-y="58"
     inkscape:window-maximized="0"
     inkscape:current-layer="svg4691"
     fit-margin-top="0"
     fit-margin-left="0"
     fit-margin-right="0"
     fit-margin-bottom="0"
     inkscape:pagecheckerboard="true" />
  <rect
     style="opacity:1;fill:#000000;fill-opacity:1;fill-rule:nonzero;stroke:none;stroke-width:4;stroke-linecap:round;stroke-linejoin:round;stroke-miterlimit:4;stroke-dasharray:none;stroke-dashoffset:0;stroke-opacity:1"
     id="rect5172"
     width="155.80234"
     height="155.80234"
     x="0"
     y="0" />
  <g
     id="g4771"
     transform="matrix(1.1484375,0,0,1.1525351,-11.563455,-11.882663)"
     style="stroke-width:0.86919904">
    <g
       transform="translate(13.901173,13.901174)"
       id="g4736"
       style="stroke-width:0.86919904">
      <g
         id="g5166"
         transform="translate(0,8.574125)"
         style="fill:#00bd00;fill-opacity:1;stroke-width:0.86919904">
        <g
           transform="matrix(1,0,0,-1,0,110.85175)"
           id="g4669"
           style="fill:#00bd00;fill-opacity:1;stroke-width:0.86919904">
          <g
             id="iteration2"
             style="fill:#00bd00;fill-opacity:1;stroke-width:0.86919904">
            <g
               transform="scale(0.5)"
               id="use4662"
               style="fill:#00bd00;fill-opacity:1;stroke-width:0.86919904">
              <path
                 inkscape:connector-curvature="0"
                 id="use5263"
                 style="fill:#00bd00;fill-opacity:1;stroke:none;stroke-width:0.43459952"
                 d="M 0,0 H 64 L 32,55.4255 Z" />
              <path
                 inkscape:connector-curvature="0"
                 id="use5265"
                 style="fill:#00bd00;fill-opacity:1;stroke:none;stroke-width:0.43459952"
                 d="m 64,0 h 64 L 96,55.4255 Z" />
              <path
                 inkscape:connector-curvature="0"
                 id="use5267"
                 style="fill:#00bd00;fill-opacity:1;stroke:none;stroke-width:0.43459952"
                 d="M 32,55.426 H 96 L 64,110.8515 Z" />
            </g>
            <g
               transform="matrix(0.5,0,0,0.5,64,0)"
               id="use4664"
               style="fill:#00bd00;fill-opacity:1;stroke-width:0.86919904">
              <path
                 inkscape:connector-curvature="0"
                 id="use5271"
                 style="fill:#00bd00;fill-opacity:1;stroke:none;stroke-width:0.43459952"
                 d="M 0,0 H 64 L 32,55.4255 Z" />
              <path
                 inkscape:connector-curvature="0"
                 id="use5273"
                 style="fill:#00bd00;fill-opacity:1;stroke:none;stroke-width:0.43459952"
                 d="m 64,0 h 64 L 96,55.4255 Z" />
              <path
                 inkscape:connector-curvature="0"
                 id="use5275"
                 style="fill:#00bd00;fill-opacity:1;stroke:none;stroke-width:0.43459952"
                 d="M 32,55.426 H 96 L 64,110.8515 Z" />
            </g>
            <g
               transform="matrix(0.5,0,0,0.5,32,55.426)"
               id="use4666"
               style="fill:#00bd00;fill-opacity:1;stroke-width:0.86919904">
              <path
                 inkscape:connector-curvature="0"
                 id="use5279"
                 style="fill:#00bd00;fill-opacity:1;stroke:none;stroke-width:0.43459952"
                 d="M 0,0 H 64 L 32,55.4255 Z" />
              <path
                 inkscape:connector-curvature="0"
                 id="use5281"
                 style="fill:#00bd00;fill-opacity:1;stroke:none;stroke-width:0.43459952"
                 d="m 64,0 h 64 L 96,55.4255 Z" />
              <path
                 inkscape:connector-curvature="0"
                 id="use5283"
                 style="fill:#00bd00;fill-opacity:1;stroke:none;stroke-width:0.43459952"
                 d="M 32,55.426 H 96 L 64,110.8515 Z" />
            </g>
          </g>
        </g>
        <path
           inkscape:connector-curvature="0"
           id="path4549"
           d="m 61.42875,79.293794 c -0.421589,-0.08302 -1.715101,-0.340336 -2.874469,-0.571817 -2.498988,-0.498949 -6.891945,-2.452072 -9.406623,-4.182215 -0.989519,-0.680808 -2.992994,-2.364067 -4.452164,-3.740575 l -2.65304,-2.50274 1.261374,-1.314102 c 2.097143,-2.184813 7.230597,-5.8831 10.037432,-7.231254 5.696483,-2.736083 12.835933,-3.197228 18.535977,-1.197258 3.744048,1.313671 8.128432,4.11076 11.391025,7.267084 l 2.689284,2.601691 -2.455726,2.344919 c -6.505477,6.211938 -15.730362,9.775278 -22.07307,8.526267 z m -4.209186,-3.853432 c -2.011638,-1.953676 -3.017356,-4.376351 -2.994302,-7.212948 0.02332,-2.866607 0.748528,-4.63312 2.828429,-6.889548 1.548059,-1.679445 1.572625,-1.742272 0.525568,-1.344183 -3.736787,1.420725 -10.3499,5.993697 -11.411855,7.891308 -0.425508,0.760339 1.253239,2.589268 4.553646,4.961021 2.160852,1.552842 6.815268,4.003818 7.604576,4.004507 0.19043,1.66e-4 -0.307295,-0.634404 -1.106062,-1.410157 z m 16.327967,-0.15295 c 2.091114,-1.048668 7.25854,-4.912345 8.351049,-6.244067 0.480598,-0.585833 0.374919,-0.829644 -0.958156,-2.210483 -2.117009,-2.19286 -5.785537,-4.749017 -8.73499,-6.086362 -3.161705,-1.433586 -3.446241,-1.432465 -1.700291,0.0066 1.980126,1.632187 3.379636,4.620987 3.379636,7.217559 0,3.038467 -0.690726,4.880236 -2.645755,7.054698 -1.96841,2.189345 -1.614833,2.229467 2.308507,0.261959 z m -5.445444,-0.859967 c 5.877389,-3.889471 3.08317,-13.290386 -3.95028,-13.290386 -3.137835,0 -5.43824,1.493849 -6.787225,4.407519 -2.997039,6.473293 4.725144,12.86166 10.737505,8.882867 z M 62.776272,73.360439 C 61.97832,73.191846 60.937239,72.52866 60.18925,71.712463 c -3.011893,-3.286543 -0.522751,-8.659091 4.011822,-8.659091 1.598782,0 3.592957,1.231041 4.384237,2.706471 2.216957,4.133753 -1.180176,8.57859 -5.809037,7.600596 z"
           style="fill:#00bd00;fill-opacity:1;stroke-width:0.86919904" />
      </g>
      <g
         style="fill:#00bd00;fill-opacity:1;stroke-width:0.86919904;filter:url(#filter4700)"
         transform="translate(0,8.574125)"
         id="g4530">
        <g
           style="fill:#00bd00;fill-opacity:1;stroke-width:0.86919904"
           id="g4526"
           transform="matrix(1,0,0,-1,0,110.85175)">
          <g
             style="fill:#00bd00;fill-opacity:1;stroke-width:0.86919904"
             id="g4524">
            <g
               style="fill:#00bd00;fill-opacity:1;stroke-width:0.86919904"
               id="g4506"
               transform="scale(0.5)">
              <path
                 d="M 0,0 H 64 L 32,55.4255 Z"
                 style="fill:#00bd00;fill-opacity:1;stroke:none;stroke-width:0.43459952"
                 id="path4500"
                 inkscape:connector-curvature="0" />
              <path
                 d="m 64,0 h 64 L 96,55.4255 Z"
                 style="fill:#00bd00;fill-opacity:1;stroke:none;stroke-width:0.43459952"
                 id="path4502"
                 inkscape:connector-curvature="0" />
              <path
                 d="M 32,55.426 H 96 L 64,110.8515 Z"
                 style="fill:#00bd00;fill-opacity:1;stroke:none;stroke-width:0.43459952"
                 id="path4504"
                 inkscape:connector-curvature="0" />
            </g>
            <g
               style="fill:#00bd00;fill-opacity:1;stroke-width:0.86919904"
               id="g4514"
               transform="matrix(0.5,0,0,0.5,64,0)">
              <path
                 d="M 0,0 H 64 L 32,55.4255 Z"
                 style="fill:#00bd00;fill-opacity:1;stroke:none;stroke-width:0.43459952"
                 id="path4508"
                 inkscape:connector-curvature="0" />
              <path
                 d="m 64,0 h 64 L 96,55.4255 Z"
                 style="fill:#00bd00;fill-opacity:1;stroke:none;stroke-width:0.43459952"
                 id="path4510"
                 inkscape:connector-curvature="0" />
              <path
                 d="M 32,55.426 H 96 L 64,110.8515 Z"
                 style="fill:#00bd00;fill-opacity:1;stroke:none;stroke-width:0.43459952"
                 id="path4512"
                 inkscape:connector-curvature="0" />
            </g>
            <g
               style="fill:#00bd00;fill-opacity:1;stroke-width:0.86919904"
               id="g4522"
               transform="matrix(0.5,0,0,0.5,32,55.426)">
              <path
                 d="M 0,0 H 64 L 32,55.4255 Z"
                 style="fill:#00bd00;fill-opacity:1;stroke:none;stroke-width:0.43459952"
                 id="path4516"
                 inkscape:connector-curvature="0" />
              <path
                 d="m 64,0 h 64 L 96,55.4255 Z"
                 style="fill:#00bd00;fill-opacity:1;stroke:none;stroke-width:0.43459952"
                 id="path4518"
                 inkscape:connector-curvature="0" />
              <path
                 d="M 32,55.426 H 96 L 64,110.8515 Z"
                 style="fill:#00bd00;fill-opacity:1;stroke:none;stroke-width:0.43459952"
                 id="path4520"
                 inkscape:connector-curvature="0" />
            </g>
          </g>
        </g>
        <path
           style="fill:#00bd00;fill-opacity:1;stroke-width:0.86919904"
           d="m 61.42875,79.293794 c -0.421589,-0.08302 -1.715101,-0.340336 -2.874469,-0.571817 -2.498988,-0.498949 -6.891945,-2.452072 -9.406623,-4.182215 -0.989519,-0.680808 -2.992994,-2.364067 -4.452164,-3.740575 l -2.65304,-2.50274 1.261374,-1.314102 c 2.097143,-2.184813 7.230597,-5.8831 10.037432,-7.231254 5.696483,-2.736083 12.835933,-3.197228 18.535977,-1.197258 3.744048,1.313671 8.128432,4.11076 11.391025,7.267084 l 2.689284,2.601691 -2.455726,2.344919 c -6.505477,6.211938 -15.730362,9.775278 -22.07307,8.526267 z m -4.209186,-3.853432 c -2.011638,-1.953676 -3.017356,-4.376351 -2.994302,-7.212948 0.02332,-2.866607 0.748528,-4.63312 2.828429,-6.889548 1.548059,-1.679445 1.572625,-1.742272 0.525568,-1.344183 -3.736787,1.420725 -10.3499,5.993697 -11.411855,7.891308 -0.425508,0.760339 1.253239,2.589268 4.553646,4.961021 2.160852,1.552842 6.815268,4.003818 7.604576,4.004507 0.19043,1.66e-4 -0.307295,-0.634404 -1.106062,-1.410157 z m 16.327967,-0.15295 c 2.091114,-1.048668 7.25854,-4.912345 8.351049,-6.244067 0.480598,-0.585833 0.374919,-0.829644 -0.958156,-2.210483 -2.117009,-2.19286 -5.785537,-4.749017 -8.73499,-6.086362 -3.161705,-1.433586 -3.446241,-1.432465 -1.700291,0.0066 1.980126,1.632187 3.379636,4.620987 3.379636,7.217559 0,3.038467 -0.690726,4.880236 -2.645755,7.054698 -1.96841,2.189345 -1.614833,2.229467 2.308507,0.261959 z m -5.445444,-0.859967 c 5.877389,-3.889471 3.08317,-13.290386 -3.95028,-13.290386 -3.137835,0 -5.43824,1.493849 -6.787225,4.407519 -2.997039,6.473293 4.725144,12.86166 10.737505,8.882867 z M 62.776272,73.360439 C 61.97832,73.191846 60.937239,72.52866 60.18925,71.712463 c -3.011893,-3.286543 -0.522751,-8.659091 4.011822,-8.659091 1.598782,0 3.592957,1.231041 4.384237,2.706471 2.216957,4.133753 -1.180176,8.57859 -5.809037,7.600596 z"
           id="path4528"
           inkscape:connector-curvature="0" />
      </g>
    </g>
  </g>
</svg>
